<!--?xml version="1.0" encoding="utf-8"?-->
<!-- Svg Vector Icons : http://www.onlinewebfonts.com/icon -->

<svg version="1.1" xmlns="http://www.w3.org/2000/svg" xmlns:xlink="http://www.w3.org/1999/xlink" x="0px" y="0px" viewBox="0 0 256 256" enable-background="new 0 0 256 256" xml:space="preserve">
<metadata> Svg Vector Icons : http://www.onlinewebfonts.com/icon </metadata>
<g><g><g><path fill="#ecb27b" data-title="Layer 0" xs="0" d="M140.5,24.7c-14.4,3.8-25.6,14.2-31,28.7c-2.3,6.2-2.9,17.5-1.3,23.9c1.1,4.3,4.4,11.6,6.9,15.4l1.4,2.1l-1.5,0.9c-0.8,0.5-2.5,1.5-3.7,2.2l-2.2,1.4l-4.6-2.5c-7.5-4-13.4-5.3-22.7-5c-6.8,0.3-8.6,0.6-13.2,2.3c-14.1,5.3-24.4,16.6-28.1,31c-1.5,5.9-1.7,14.4-0.4,19.9l0.8,3.8H28.7c-13.8,0-15.6,0.5-17.8,4.8c-1.7,3.2-1.1,6.2,1.9,8.8l2.3,2l15.1,0.1c14.3,0,15,0.1,13.4,1.1c-12.6,8.7-22.1,19.4-27.3,30.8c-2.9,6.2-5,14.3-5.8,21.8c-0.9,7.7-0.4,10.2,2.7,12.8l2,1.6h67.8c74.5,0,70.5,0.2,72.7-3.9c2-3.8,0.8-16-2.5-25.8c-4.7-13.6-14.8-26.9-27.1-35.3l-4.2-2.9l59.9-0.3l59.9-0.3l1.9-1.9c2.7-2.5,3.2-5.5,1.6-8.6c-2-3.9-4.5-4.8-13.2-4.8h-7.5l-0.5-3.7c-1.5-12.6-10.3-28.6-21.4-38.8c-4.1-3.8-12.7-10.1-14.9-10.9c-0.7-0.2-0.7-0.5-0.1-1.5c3-4.6,4.9-8.4,6.4-12.9c1.6-4.5,1.8-6.2,1.9-13c0-6.9-0.2-8.4-1.9-13.6c-4.8-14.5-17.6-26.5-32.2-29.9C155.9,23,146.3,23.2,140.5,24.7z M158.7,40c5.4,1.4,8.6,3.2,12.9,7.3c6.7,6.4,10,16.2,8.4,24.9c-1.1,6.5-4,11.6-9.7,17.1c-4.9,4.8-5,5-5,8.1c0,4.2,1.7,5.9,8.6,8.7c12.3,5.1,22.3,13.8,28.7,25.1c2.1,3.8,4.7,11,5.5,15l0.5,2.5h-41.4c-36.6,0-41.2-0.1-40.9-1c0.2-0.5,0.7-2.9,1.1-5.3c1.5-8.7-0.5-19.7-5-27.9l-2.2-4l3.8-1.9c2-1.1,5.4-2.6,7.5-3.4c4.3-1.7,6.2-4.2,6.2-7.8c-0.1-3-0.9-4.4-5.2-8.3c-10.1-9.2-12.5-22.7-6.1-35.3C132,42.8,146.3,36.7,158.7,40z M92.4,108.5c10.5,3.6,17.5,11.8,19.5,22.7c1.6,9-1.5,18.2-8.2,24.7c-6,5.8-6.1,6-6.6,8.2c-0.5,2.3,0.5,5.4,2.2,6.9c0.7,0.6,3.8,2.1,6.9,3.5c13.7,5.9,24,15.6,29.8,28.2c2,4.2,4.3,11.5,4.3,13.4c0,0.5-15.8,0.7-56.9,0.7H26.5l0.5-2.6c0.7-4.7,4.3-13.4,7.5-18.2c6.1-9.2,14.1-16,24.7-20.8c8.5-3.9,8.6-3.9,9.5-5.8c0.5-1,0.9-3,0.9-4.4c0-2.5-0.4-3.1-5.1-7.7c-3.5-3.4-5.6-6.2-6.9-8.9c-7.4-15.8,0.6-34.7,17-39.9C79.8,106.8,87.3,106.8,92.4,108.5z"/></g></g></g>
</svg>