<svg version="1.1" id="Gradient" xmlns="http://www.w3.org/2000/svg" xmlns:xlink="http://www.w3.org/1999/xlink" x="0px" y="0px" viewBox="0 0 512 512" enable-background="new 0 0 512 512" xml:space="preserve">
<linearGradient id="SVGID_1_" gradientUnits="userSpaceOnUse" x1="93.9166" y1="51.2754" x2="362.3611" y2="440.6088">
	<stop offset="0" style="stop-color:#FFD3B6" id="id_276"></stop>
	<stop offset="0.4849" style="stop-color: rgb(236, 178, 123);" id="id_277"></stop>
	<stop offset="1" style="stop-color: rgb(237, 182, 124);" id="id_278"></stop>
</linearGradient>
<path fill="url(#SVGID_1_)" d="M231.904,233.336c2.586,0,5.125-1.25,6.664-3.562c2.453-3.68,1.461-8.641-2.219-11.094
	c-22.18-14.781-43.961-0.609-44.875,0c-3.656,2.438-4.641,7.352-2.227,11.031c2.414,3.688,7.383,4.688,11.055,2.312
	c0.562-0.367,13.977-8.836,27.172-0.031C228.842,232.898,230.381,233.336,231.904,233.336z" id="id_269"></path>
<linearGradient id="SVGID_00000183239310196594045470000015612642456615732889_" gradientUnits="userSpaceOnUse" x1="85.4623" y1="57.1047" x2="353.9068" y2="446.438">
	<stop offset="0" style="stop-color:#FFD3B6" id="id_279"></stop>
	<stop offset="0.4849" style="stop-color: rgb(232, 178, 121);" id="id_280"></stop>
	<stop offset="1" style="stop-color: rgb(230, 177, 120);" id="id_281"></stop>
</linearGradient>
<path fill="url(#SVGID_00000183239310196594045470000015612642456615732889_)" d="M276.498,297.078
	c-20.039,9.477-40.805,0.172-41.195-0.008c-3.992-1.875-8.734-0.156-10.625,3.828c-1.883,3.992-0.18,8.758,3.82,10.648
	c0.734,0.352,12.57,5.812,28.32,5.812c8.117,0,17.289-1.453,26.508-5.812c4-1.891,5.703-6.656,3.82-10.648
	C285.256,296.906,280.49,295.18,276.498,297.078z" id="id_270"></path>
<linearGradient id="SVGID_00000004512221941442027900000001341563316782234520_" gradientUnits="userSpaceOnUse" x1="150.8501" y1="12.02" x2="419.2945" y2="401.3533">
	<stop offset="0" style="stop-color:#FFD3B6" id="id_282"></stop>
	<stop offset="0.4849" style="stop-color: rgb(240, 185, 125);" id="id_283"></stop>
	<stop offset="1" style="stop-color: rgb(232, 178, 121);" id="id_284"></stop>
</linearGradient>
<path fill="url(#SVGID_00000004512221941442027900000001341563316782234520_)" d="M275.475,218.68
	c-3.656,2.438-4.641,7.352-2.227,11.031c2.414,3.688,7.383,4.688,11.055,2.312c0.57-0.367,13.977-8.836,27.172-0.031
	c1.367,0.906,2.906,1.344,4.43,1.344c2.586,0,5.125-1.25,6.664-3.562c2.453-3.68,1.461-8.641-2.219-11.094
	C298.17,203.898,276.389,218.07,275.475,218.68z" id="id_271"></path>
<linearGradient id="SVGID_00000044892479973873043170000006415655077540161967_" gradientUnits="userSpaceOnUse" x1="72.2996" y1="66.1803" x2="340.744" y2="455.5137">
	<stop offset="0" style="stop-color:#FFD3B6" id="id_285"></stop>
	<stop offset="0.4849" style="stop-color: rgb(235, 181, 123);" id="id_286"></stop>
	<stop offset="1" style="stop-color: rgb(232, 179, 123);" id="id_287"></stop>
</linearGradient>
<path fill="url(#SVGID_00000044892479973873043170000006415655077540161967_)" d="M377.1,20.062
	C356.537,4.719,333.225-2.516,314.623,0.75c-10.648,1.859-19.07,7.078-24.359,15.109c-3.058,4.662-4.514,11.492-5.035,17.632
	C279.437,32.611,273.564,32,267.545,32h-23.266c-68.578,0-124.367,59.156-124.367,131.875V276c0,11.031,8.969,20,20,20h8
	c3.205,0,6.192-0.827,8.879-2.171c4.552,14.706,13.181,32.418,29.621,47.984c7.991,7.566,16.334,13.102,24.507,17.389
	c0.861,17.067-0.199,57.897-27.913,73.392c-7.797,4.359-18.023,7.406-24.836,7.406c-20.109-0.102-54.242-0.211-56.82,0.039
	c-33.945,3.328-61.773,28.344-69.25,62.242c-0.523,2.367,0.055,4.844,1.578,6.727c1.516,1.891,3.812,2.992,6.234,2.992h428.445
	c2.422,0,4.719-1.102,6.234-2.992c1.523-1.883,2.102-4.359,1.578-6.727c-7.477-33.898-35.305-58.914-69.258-62.242
	c-2.586-0.25-36.703-0.141-56.781-0.039c-6.844,0-17.07-3.047-24.867-7.406c-26.719-14.939-28.662-53.418-27.996-71.46
	c9.306-4.454,18.967-10.632,28.144-19.321c16.404-15.532,25.032-33.201,29.597-47.997c2.693,1.352,5.689,2.185,8.903,2.185h8
	c11.031,0,20-8.969,20-20V163.875c0-16.312-2.939-31.875-8.068-46.309c9.653-2.082,21.605-6.018,26.357-13.324
	C424.865,81.938,410.326,44.969,377.1,20.062z M244.279,48h23.266c7.435,0,14.695,0.81,21.712,2.342
	c1.179,0.684,2.474,1.182,3.937,1.182c0.08,0,0.146-0.043,0.226-0.045c47.281,12.456,82.493,58.055,82.493,112.397v44.529
	c-1.293-0.263-2.63-0.404-4-0.404h-8c-1.37,0-2.707,0.141-4,0.404V184c0-2.32-1.008-4.523-2.758-6.047
	c-1.742-1.516-4.086-2.203-6.375-1.875c-70.305,10.039-117.625-40.195-126.867-50.953V88c0-4.422-3.578-8-8-8s-8,3.578-8,8v39.062
	c-2.039,8.273-7.43,23.031-21.211,34.867c-8.086,6.938-17.953,11.875-28.555,14.266c-3.648,0.828-6.234,4.062-6.234,7.805
	l0.007,24.405c-1.295-0.264-2.635-0.405-4.007-0.405h-8c-1.37,0-2.707,0.141-4,0.404v-44.529C135.912,99.984,184.522,48,244.279,48z
	 M151.912,276c0,2.172-1.828,4-4,4h-8c-2.172,0-4-1.828-4-4v-48c0-2.172,1.828-4,4-4h8c2.172,0,4,1.828,4,4V276z M317.451,446.562
	c7.789,4.352,21.023,9.438,32.719,9.438c19.914-0.086,52.555-0.18,55.18-0.039c23.688,2.32,43.648,17.961,52.25,40.039H50.67
	c8.594-22.078,28.531-37.711,52.07-40.023c2.805-0.156,35.438-0.07,55.391,0.023c11.664,0,24.898-5.086,32.688-9.438
	c31.471-17.594,36.264-57.624,36.265-80.374c11.24,3.792,21.296,5.307,28.274,5.795c0.18,0.008,0.367,0.016,0.555,0.016
	s0.375-0.008,0.555-0.016c6.23-0.436,14.938-1.721,24.72-4.668C281.351,390.243,286.503,429.261,317.451,446.562z M314.412,330.188
	c-21.937,20.781-47.812,24.969-58.5,25.789c-10.688-0.82-36.562-5.008-58.5-25.789c-24.281-22.984-28.734-51.539-29.5-62.188
	v-77.867c10.766-3.328,20.766-8.812,29.211-16.062c11.297-9.695,18.047-20.938,22.055-30.406
	c18.422,18.695,62.375,54.383,124.734,49.281l0.011,34.946c0,0.037-0.011,0.072-0.011,0.109v39.714
	C343.073,279.098,338.511,307.376,314.412,330.188z M375.912,276c0,2.172-1.828,4-4,4h-8c-2.172,0-4-1.828-4-4v-48
	c0-2.172,1.828-4,4-4h8c2.172,0,4,1.828,4,4V276z M396.811,95.477c-1.289,1.83-8.623,5.053-19.27,7.042
	c-15.779-31.678-43.361-55.67-76.505-65.523c0.225-5.288,1.361-10.466,2.596-12.347c2.836-4.297,7.461-7.039,13.758-8.141
	c14.062-2.414,33.297,3.812,50.125,16.367C393.1,52.055,406.522,80.703,396.811,95.477z" id="id_272"></path>
<linearGradient id="SVGID_00000094587104011315595010000012075883892279811736_" gradientUnits="userSpaceOnUse" x1="48.9406" y1="82.2863" x2="317.385" y2="471.6197">
	<stop offset="0" style="stop-color:#FFD3B6" id="id_288"></stop>
	<stop offset="0.4849" style="stop-color: rgb(242, 186, 126);" id="id_289"></stop>
	<stop offset="1" style="stop-color: rgb(224, 173, 119);" id="id_290"></stop>
</linearGradient>
<path fill="url(#SVGID_00000094587104011315595010000012075883892279811736_)" d="M103.975,96c-3.328-0.062-32.062-1.953-32.062-48
	c0-4.422-3.578-8-8-8s-8,3.578-8,8c0,46.094-28.789,47.938-32,48h-0.047c-0.008-0.008-0.031-0.008-0.055,0c-0.008,0-0.008,0-0.008,0
	c-0.008,0-0.008,0-0.008,0h-0.008c-0.008,0-0.008,0-0.016,0c-4.352,0.078-7.859,3.633-7.859,8c0,4.398,3.547,7.969,7.938,8
	c3.328,0.062,32.062,1.953,32.062,48c0,4.422,3.578,8,8,8s8-3.578,8-8c0-46.047,28.734-47.938,32.062-48h0.039
	c0.008,0,0.008,0,0.008,0c0.008,0,0.008,0,0.008,0h0.008c0.008,0,0.008,0,0.016,0c4.352-0.078,7.859-3.633,7.859-8
	C111.912,99.602,108.365,96.031,103.975,96z M63.912,122.203c-4.5-8.562-10.375-14.32-16.227-18.203
	c5.852-3.883,11.727-9.641,16.227-18.203c4.5,8.562,10.375,14.32,16.227,18.203C74.287,107.883,68.412,113.641,63.912,122.203z" id="id_273"></path>
<linearGradient id="SVGID_00000109709904035661899790000014329471925036755885_" gradientUnits="userSpaceOnUse" x1="164.1445" y1="2.8535" x2="432.5889" y2="392.1868">
	<stop offset="0" style="stop-color:#FFD3B6" id="id_291"></stop>
	<stop offset="0.4849" style="stop-color: rgb(237, 182, 124);" id="id_292"></stop>
	<stop offset="1" style="stop-color: rgb(230, 177, 120);" id="id_293"></stop>
</linearGradient>
<path fill="url(#SVGID_00000109709904035661899790000014329471925036755885_)" d="M375.912,360h-0.047c0-0.008-0.039-0.008-0.055,0
	c-0.008,0-0.008,0-0.008,0c-0.008,0-0.008,0-0.008,0h-0.008c-0.008,0-0.008,0-0.016,0c-4.352,0.078-7.859,3.633-7.859,8
	c0,4.398,3.547,7.969,7.938,8c3.328,0.062,32.062,1.953,32.062,48c0,4.422,3.578,8,8,8s8-3.578,8-8
	c0-46.047,28.734-47.938,32.062-48h0.039c0.008,0,0.008,0,0.008,0c0.008,0,0.008,0,0.008,0h0.008c0.008,0,0.008,0,0.016,0
	c4.352-0.078,7.859-3.633,7.859-8c0-4.398-3.547-7.969-7.938-8c-3.328-0.062-32.062-1.953-32.062-48c0-4.422-3.578-8-8-8
	s-8,3.578-8,8C407.912,358.094,379.123,359.938,375.912,360z M415.912,349.797c4.5,8.562,10.375,14.32,16.227,18.203
	c-5.852,3.883-11.727,9.641-16.227,18.203c-4.5-8.562-10.375-14.32-16.227-18.203C405.537,364.117,411.412,358.359,415.912,349.797z
	" id="id_274"></path>
<linearGradient id="SVGID_00000121255531541607838900000018388178047249774005_" gradientUnits="userSpaceOnUse" x1="-55.0694" y1="154.001" x2="213.375" y2="543.3343">
	<stop offset="0" style="stop-color:#FFD3B6" id="id_294"></stop>
	<stop offset="0.4849" style="stop-color: rgb(245, 191, 133);" id="id_295"></stop>
	<stop offset="1" style="stop-color: rgb(230, 179, 124);" id="id_296"></stop>
</linearGradient>
<path fill="url(#SVGID_00000121255531541607838900000018388178047249774005_)" d="M100.482,328c0-4.422-3.578-8-8-8s-8,3.578-8,8
	c0,30.57-18.555,31.945-20.57,32c-0.008,0-0.016,0-0.016,0c-0.008,0-0.008,0-0.008,0c-0.008,0-0.008,0-0.016,0c0,0,0,0-0.008,0
	c0-0.008-0.039-0.008-0.055,0h-0.023c-4.359,0.07-7.875,3.625-7.875,8c0,4.391,3.539,7.953,7.914,8
	c2.195,0.062,20.656,1.508,20.656,32c0,4.422,3.578,8,8,8s8-3.578,8-8c0-30.492,18.461-31.938,20.656-32c0.008,0,0.008,0,0.016,0
	h0.023c4.359-0.07,7.875-3.625,7.875-8c0-4.391-3.539-7.953-7.914-8C118.943,359.938,100.482,358.492,100.482,328z M92.482,376.445
	c-2.32-3.508-4.969-6.273-7.688-8.445c2.719-2.172,5.367-4.938,7.688-8.445c2.32,3.508,4.969,6.273,7.688,8.445
	C97.451,370.172,94.803,372.938,92.482,376.445z" id="id_275"></path>
</svg>